<?xml version="1.0" encoding="utf-8"?>
<!-- Generator: Adobe Illustrator 27.3.1, SVG Export Plug-In . SVG Version: 6.00 Build 0)  -->
<svg version="1.1" id="Layer_1" xmlns="http://www.w3.org/2000/svg" xmlns:xlink="http://www.w3.org/1999/xlink" x="0px" y="0px"
	 viewBox="0 0 1000 1000" style="enable-background:new 0 0 1000 1000;" xml:space="preserve">
<style type="text/css">
	.st0{fill:#36970E;}
</style>
<path class="st0" d="M334.6,541.1c6.1-70.5,63.5-128.1,142.7-154.3c26.6-8.9,53.8-25.3,73.2-45.7c62.8-65.7,194.6-75.6,273.1-17
	c-30.3-37.7-75.7-67.5-129.8-85.1c-31.6-10.3-64-29.5-87.1-53.3c-102.6-105.8-361-88.1-395.2,92.2C112.9,292.6,25.1,329.3,4,438.4
	c-22.2,115,50.7,177.6,159.9,224.1c-30.4,72.6-59.3,141.4-89,212.2c86.2-11.8,163.6-48.3,231.5-107.6c15.3-13.4,38.4-28.8,56.2-26.9
	c33.7,3.7,66.3,4,98.1,1.6c-8.2-5.3-16.4-10.6-24.6-16.3C369.1,678.4,327.5,625.3,334.6,541.1z M947.2,879.4
	c-21-50.8-41.3-100.1-62.8-152.2c77-33.4,128.5-78.3,112.8-160.7c-14.9-78.3-76.8-104.6-146.4-115.2
	c-24.1-129.2-206.4-142-278.7-66.1c-16.3,17.1-39.1,30.9-61.5,38.3c-66.3,22-114.5,70.3-119.5,129.4c-6,70.5,28.8,115.1,85,154.5
	c82.3,57.7,168.5,86.4,268.2,75.5c12.5-1.3,28.8,9.7,39.6,19.3C831.8,844.7,886.3,870.9,947.2,879.4L947.2,879.4z"/>
</svg>
